<?xml version="1.0" encoding="UTF-8" standalone="no"?>
<svg
   height="32"
   width="32"
   viewBox="0 0 30.000123 29.999967"
   version="1.1"
   id="svg1"
   sodipodi:docname="itchio.svg"
   inkscape:version="1.3 (0e150ed6c4, 2023-07-21)"
   xmlns:inkscape="http://www.inkscape.org/namespaces/inkscape"
   xmlns:sodipodi="http://sodipodi.sourceforge.net/DTD/sodipodi-0.dtd"
   xmlns="http://www.w3.org/2000/svg"
   xmlns:svg="http://www.w3.org/2000/svg">
  <defs
     id="defs1" />
  <sodipodi:namedview
     id="namedview1"
     pagecolor="#ffffff"
     bordercolor="#000000"
     borderopacity="0.25"
     inkscape:showpageshadow="2"
     inkscape:pageopacity="0.0"
     inkscape:pagecheckerboard="0"
     inkscape:deskcolor="#d1d1d1"
     inkscape:zoom="1.6925969"
     inkscape:cx="49.923286"
     inkscape:cy="84.190157"
     inkscape:window-width="1366"
     inkscape:window-height="705"
     inkscape:window-x="-8"
     inkscape:window-y="-8"
     inkscape:window-maximized="1"
     inkscape:current-layer="svg1" />
  <path
     d="M 3.91122,1.6733916 C 2.60263,2.4503786 0.02445,5.4122236 0,6.1889636 v 1.28572 c 0,1.62978 1.52341,3.0622204 2.90658,3.0622204 1.66083,0 3.04461,-1.3764404 3.04473,-3.0101304 0,1.63369 1.33635,3.0101304 2.9973,3.0101304 1.66108,0 2.95451,-1.3764404 2.95451,-3.0101304 0,1.63369 1.42095,3.0101304 3.0819,3.0101304 h 0.0301 c 1.66107,0 3.08203,-1.3764404 3.08203,-3.0101304 0,1.63369 1.29355,3.0101304 2.95438,3.0101304 1.66095,0 2.9973,-1.3764404 2.9973,-3.0101304 0,1.63369 1.38402,3.0101304 3.04473,3.0101304 1.38317,0 2.90658,-1.4321904 2.90658,-3.0622204 v -1.28572 c -0.0245,-0.77687 -2.60263,-3.73883 -3.91097,-4.515572 -4.06723,-0.142804 -6.88688,-0.167502 -11.08921,-0.16689 -4.20221,3.67e-4 -9.93125,0.06602 -11.08897,0.16689 z m 7.97087,8.095942 a 3.4264441,3.4264441 0 0 1 -0.58442,0.7525404 c -0.62697,0.61303 -1.48637,0.99302 -2.43379,0.99302 A 3.4823187,3.4823187 0 0 1 6.42496,10.521384 C 6.1978,10.298864 6.02516,10.060934 5.86707,9.7838836 l -7.3e-4,4.9e-4 C 5.70838,10.061914 5.4883,10.299714 5.26064,10.522484 a 3.4845194,3.4845194 0 0 1 -2.43891,0.99278 c -0.1142,0 -0.23304,-0.0315 -0.32914,-0.0646 -0.13351,1.39039 -0.18987,2.71915 -0.2098,3.68797 l -2.5e-4,0.005 c -0.002,0.49199 -0.005,0.89656 -0.007,1.45861 0.0257,2.91722 -0.28891,9.45515 1.28621,11.06158 2.44088,0.56914 6.93236,0.82833 11.4384,0.82992 h 7.3e-4 c 4.50591,-0.002 8.99739,-0.26078 11.43827,-0.82992 1.57513,-1.60655 1.26054,-8.14449 1.28622,-11.0617 -0.003,-0.56193 -0.005,-0.9665 -0.007,-1.45861 l -3.7e-4,-0.005 c -0.0198,-0.96906 -0.0762,-2.29771 -0.20968,-3.68809 -0.0961,0.033 -0.21482,0.0646 -0.32913,0.0646 a 3.4845194,3.4845194 0 0 1 -2.43892,-0.99279 c -0.22766,-0.22276 -0.44773,-0.46044 -0.60582,-0.7381004 l -7.3e-4,-4.9e-4 c -0.15821,0.2770504 -0.33073,0.5150904 -0.55789,0.7374904 a 3.4820741,3.4820741 0 0 1 -2.4388,0.9934 c -0.9473,0 -1.80682,-0.38024 -2.43378,-0.99315 a 3.4264441,3.4264441 0 0 1 -0.58443,-0.7525404 3.4221648,3.4221648 0 0 1 -0.57904,0.7525404 3.4832968,3.4832968 0 0 1 -2.43916,0.99327 c -0.033,0 -0.066,-10e-4 -0.099,-0.002 h -8.6e-4 c -0.033,9.8e-4 -0.066,0.002 -0.0994,0.002 A 3.4832968,3.4832968 0 0 1 12.4622,10.521504 3.4224094,3.4224094 0 0 1 11.88315,9.7689736 Z m -2.5047,3.2387704 -2.4e-4,0.001 h 0.002 c 0.99193,0.002 1.87308,0 2.9649,1.19159 0.85927,-0.0901 1.75717,-0.1351 2.65581,-0.13376 h 7.4e-4 c 0.89864,-10e-4 1.79654,0.0436 2.65593,0.13376 1.09182,-1.19171 1.97298,-1.18963 2.9649,-1.19159 h 0.002 l -2.4e-4,-0.001 c 0.46864,0 2.34331,0 3.64957,3.66877 l 1.4031,5.03299 c 1.03974,3.74421 -0.33292,3.83579 -2.0451,3.83909 -2.53918,-0.0945 -3.94509,-1.9385 -3.94509,-3.78223 -1.40554,0.23034 -3.04523,0.34551 -4.68491,0.34564 h -7.3e-4 c -1.6398,0 -3.27948,-0.1153 -4.6849,-0.34564 0,1.84373 -1.40604,3.68772 -3.94509,3.78223 -1.71218,-0.003 -3.08472,-0.0948 -2.04499,-3.83909 l 1.40347,-5.03287 c 1.30627,-3.66877 3.18094,-3.66877 3.64958,-3.66877 z m 5.6223,2.88323 v 7.3e-4 c -0.002,0.002 -2.67305,2.45506 -3.15318,3.32741 l 1.74886,-0.0701 v 1.52512 c 0,0.0714 0.7018,0.0423 1.40432,0.01 h 7.4e-4 c 0.70228,0.0325 1.4042,0.0616 1.4042,-0.01 v -1.52512 l 1.74886,0.0701 c -0.48025,-0.87235 -3.15319,-3.32741 -3.15319,-3.32741 v -7.3e-4 l -3.6e-4,2.4e-4 z"
     color="#000000"
     id="path1"
     style="fill:#ffffff;fill-opacity:1;stroke-width:0.122264" />
</svg>
